<svg id="Layer_1" data-name="Layer 1" xmlns="http://www.w3.org/2000/svg" viewBox="0 0 537.46 264.42"><title>4th Concept</title><polygon points="48.42 264.42 13.86 210.96 7.48 220.58 7.48 264.42 0 264.42 0 149.57 7.48 149.57 7.48 207.44 45.58 149.57 54.16 149.57 18.48 204 56.95 264.42 48.42 264.42"/><path d="M484.27,672.21l-6.49-26.13h-36.3L435,672.21h-7.27l27.72-115h8.05l28.39,115Zm-8.12-33.3-16.73-67.22-16.33,67.22Z" transform="translate(-271.27 -407.79)"/><path d="M638,672.21l-.59-.93c-2.66-4.18-3-9.79-3-14.21V639.65c0-13.2-6.44-18.59-22.23-18.59H600.6v51.15h-7.48V557.36h24c16.45,0,24.8,9,24.8,26.86v10c0,11.8-4.09,19.46-12.46,23.21,8.18,3.57,12.46,11.14,12.46,22.24v17.42c0,5.54.88,9.57,2.63,12l2.31,3.18Zm-25.82-58.47c14.08,0,22.23-3.12,22.23-19.07V584.54c0-13.73-5.39-19.85-17.48-19.85H600.6v49Z" transform="translate(-271.27 -407.79)"/><path d="M801.13,672.21l-6.49-26.13H758.33l-6.49,26.13h-7.27l27.73-115h8.05l28.38,115ZM793,638.91l-16.74-67.22L760,638.91Z" transform="translate(-271.27 -407.79)"/><polygon points="64.7 114.85 64.7 0 72.19 0 72.19 107.52 515.42 107.52 470.35 30.24 470.35 24.57 536.9 17.66 536.9 24.99 479.27 31.35 524.71 108.83 524.71 114.85 64.7 114.85"/><rect x="0.01" y="0.27" width="7.48" height="114.85"/><rect x="2.01" y="2.27" width="3.48" height="110.85"/><path d="M283.25,544.1c-.79,0-1.53,0-2.28-.07l-1.88-.12v-7.34l2.14.14c.61,0,1.24.06,1.91.06,1.5,0,2.9-.1,4.45-.22,11.39-1,16.05-7.23,16.05-21.44V450.3h7.48V515c0,18.37-7.49,27.83-22.92,28.92-1.57.11-3.2.23-4.95.23Z" transform="translate(-271.27 -407.79)"/><path d="M288.06,541.87c13.46-1,21.06-8.55,21.06-26.92V452.3h-3.48v62.81c0,15.52-5.54,22.33-17.9,23.44a46.4,46.4,0,0,1-6.65.16V542A49.48,49.48,0,0,0,288.06,541.87Z" transform="translate(-271.27 -407.79)"/><polygon points="524.4 2.12 478.62 6.84 478.62 10.52 524.4 5.5 524.4 2.12"/></svg>